# xmcd
#
# Track frame offsets: 
#        150
#        14055
#        26281
#        44247
#        61938
#        79054
#        97352
#        114933
#        130476
#        145676
#        156492
#        170260
#        184451
#        201181
#        214115
#        232578
#        250969
#        270423
#        296197
#        311353
#
# Disc length: 4332 seconds
#
# Revision: 3
# Processed by: cddbd v1.5.2PL0 Copyright (c) Steve Scherf et al.
# Submitted via: ExactAudioCopy v1.0b3
#
DISCID=2810ea14
DTITLE=Various Artist - New Country Collection Vol. 2 [CD 1,3)
DYEAR=2008
DGENRE=Country
TTITLE0=Joe Diffie - Cold Budweiser And A Sweet Tater
TTITLE1=Danni Leigh - Quarter Over You
TTITLE2=Kenny Chesney - Big Star
TTITLE3=Jack Owen - Startin' With Me
TTITLE4=Sara Evans - Suds In The Bucket
TTITLE5=BlackHawk - That's Just About Right
TTITLE6=Rodney Atkins - Watching You
TTITLE7=Jo Dee Messina - Heads Carolina, Tails California
TTITLE8=Sawyer Brown - Cafe On The Corner
TTITLE9=Dolly Parton &Tammy Wynette and Loretta Lynn - Silver Threads An
TTITLE9=d Golden Needles
TTITLE10=Amy Dalley - Men Don't Change
TTITLE11=Lorrie Morgan and Sammy Kershaw - He Drinks Tequila
TTITLE12=Jeff Bates - One Second Chance
TTITLE13=Martina McBride - I Love You
TTITLE14=Phil Vassar - Carlene
TTITLE15=Diamond Rio - How Your Love Makes Me Feel
TTITLE16=Pam Tillis with John Anderson - Life Has Sure Change Us Aroun
TTITLE16=d
TTITLE17=John Carter Cash - Bitter Harvest
TTITLE18=Teresa - The Longer It Takes (Rob Fraboni Mix)
TTITLE19=John Arthur Martinez - Rio Grande Rodeo Night
EXTD=YEAR: 2008
EXTT0=
EXTT1=
EXTT2=
EXTT3=
EXTT4=
EXTT5=
EXTT6=
EXTT7=
EXTT8=
EXTT9=
EXTT10=
EXTT11=
EXTT12=
EXTT13=
EXTT14=
EXTT15=
EXTT16=
EXTT17=
EXTT18=
EXTT19=
PLAYORDER=
